<svg width="19" height="21" viewBox="0 0 19 21" fill="none" xmlns="http://www.w3.org/2000/svg">
<path d="M16.0177 9.29031L2.56276 9.29031C1.5012 9.29031 0.640625 10.1509 0.640625 11.2124L0.640625 17.9399C0.640625 19.0015 1.5012 19.8621 2.56276 19.8621L16.0177 19.8621C17.0793 19.8621 17.9399 19.0015 17.9399 17.9399L17.9399 11.2124C17.9399 10.1509 17.0793 9.29031 16.0177 9.29031Z" stroke="white" stroke-width="1.28142" stroke-linecap="round" stroke-linejoin="round"/>
<path d="M4.48437 9.29033L4.48437 5.44606C4.48437 4.1716 4.99065 2.94934 5.89183 2.04817C6.793 1.14699 8.01526 0.640717 9.28972 0.640717C10.5642 0.640717 11.7864 1.14699 12.6876 2.04817C13.5888 2.94934 14.0951 4.1716 14.0951 5.44606L14.0951 9.29033" stroke="white" stroke-width="1.28142" stroke-linecap="round" stroke-linejoin="round"/>
</svg>
