<svg width="17" height="19" viewBox="0 0 17 19" fill="none" xmlns="http://www.w3.org/2000/svg">
<path d="M14.0833 8.25H2.41667C1.49619 8.25 0.75 8.99619 0.75 9.91667V15.75C0.75 16.6705 1.49619 17.4167 2.41667 17.4167H14.0833C15.0038 17.4167 15.75 16.6705 15.75 15.75V9.91667C15.75 8.99619 15.0038 8.25 14.0833 8.25Z" stroke="#644AF6" stroke-width="1.5" stroke-linecap="round" stroke-linejoin="round"/>
<path d="M4.08203 8.25V4.91667C4.08203 3.8116 4.52102 2.75179 5.30242 1.97039C6.08382 1.18899 7.14363 0.75 8.2487 0.75C9.35377 0.75 10.4136 1.18899 11.195 1.97039C11.9764 2.75179 12.4154 3.8116 12.4154 4.91667V8.25" stroke="#644AF6" stroke-width="1.5" stroke-linecap="round" stroke-linejoin="round"/>
</svg>
