<svg width="20" height="17" viewBox="0 0 20 17" fill="none" xmlns="http://www.w3.org/2000/svg">
<path d="M0.75 5.71452C0.750018 4.71301 1.05383 3.73505 1.62132 2.90983C2.1888 2.0846 2.99326 1.45093 3.92844 1.0925C4.86362 0.734065 5.88553 0.667738 6.85919 0.902277C7.83286 1.13682 8.71248 1.66119 9.38187 2.40613C9.42902 2.45655 9.48602 2.49674 9.54934 2.52421C9.61266 2.55169 9.68095 2.56587 9.74997 2.56587C9.819 2.56587 9.88728 2.55169 9.9506 2.52421C10.0139 2.49674 10.0709 2.45655 10.1181 2.40613C10.7854 1.65635 11.6652 1.12757 12.6404 0.890179C13.6157 0.65279 14.6401 0.71805 15.5773 1.07727C16.5146 1.43649 17.3202 2.07264 17.8869 2.90104C18.4537 3.72944 18.7547 4.71081 18.7499 5.71452C18.7499 7.77552 17.3999 9.31451 16.05 10.6645L11.1072 15.4462C10.9395 15.6388 10.7327 15.7935 10.5006 15.9001C10.2685 16.0066 10.0164 16.0626 9.76103 16.0642C9.50565 16.0658 9.25286 16.013 9.01943 15.9094C8.78601 15.8058 8.5773 15.6538 8.40718 15.4633L3.44999 10.6645C2.1 9.31451 0.75 7.78452 0.75 5.71452Z" stroke="#644AF6" stroke-width="1.5" stroke-linecap="round" stroke-linejoin="round"/>
<path d="M1.84668 8.86404H7.49866L7.94866 7.96404L9.74865 12.014L11.5486 5.71405L12.8986 8.86404H17.6416" stroke="#644AF6" stroke-width="1.5" stroke-linecap="round" stroke-linejoin="round"/>
</svg>
