<svg width="17" height="15" viewBox="0 0 17 15" fill="none" xmlns="http://www.w3.org/2000/svg">
<path d="M11.25 14.25V12.75C11.25 11.9544 10.9339 11.1913 10.3713 10.6287C9.80871 10.0661 9.04565 9.75 8.25 9.75H3.75C2.95435 9.75 2.19129 10.0661 1.62868 10.6287C1.06607 11.1913 0.75 11.9544 0.75 12.75V14.25" stroke="#644AF6" stroke-width="1.5" stroke-linecap="round" stroke-linejoin="round"/>
<path d="M11.25 0.847656C11.8933 1.01443 12.463 1.3901 12.8698 1.9157C13.2765 2.4413 13.4971 3.08707 13.4971 3.75166C13.4971 4.41624 13.2765 5.06201 12.8698 5.58761C12.463 6.11321 11.8933 6.48888 11.25 6.65566" stroke="#644AF6" stroke-width="1.5" stroke-linecap="round" stroke-linejoin="round"/>
<path d="M15.75 14.2502V12.7502C15.7495 12.0855 15.5283 11.4397 15.121 10.9144C14.7138 10.389 14.1436 10.0138 13.5 9.84766" stroke="#644AF6" stroke-width="1.5" stroke-linecap="round" stroke-linejoin="round"/>
<path d="M6 6.75C7.65685 6.75 9 5.40685 9 3.75C9 2.09315 7.65685 0.75 6 0.75C4.34315 0.75 3 2.09315 3 3.75C3 5.40685 4.34315 6.75 6 6.75Z" stroke="#644AF6" stroke-width="1.5" stroke-linecap="round" stroke-linejoin="round"/>
</svg>
